<svg width="40" height="40" viewBox="0 0 40 40" fill="none" xmlns="http://www.w3.org/2000/svg">
<path d="M27.7914 18.2039C26.8474 18.2039 26.0234 18.0199 25.3194 17.6519C24.6154 17.2839 24.0674 16.7679 23.6754 16.1039C23.2914 15.4399 23.0994 14.6679 23.0994 13.7879C23.0994 12.8919 23.2914 12.1119 23.6754 11.4479C24.0674 10.7839 24.6154 10.2679 25.3194 9.8999C26.0234 9.5319 26.8434 9.3479 27.7794 9.3479C28.5154 9.3479 29.1714 9.4479 29.7474 9.6479C30.3234 9.8479 30.8074 10.1439 31.1994 10.5359C31.5914 10.9279 31.8794 11.4039 32.0634 11.9639L30.1914 12.5519C29.9994 12.0559 29.6994 11.6799 29.2914 11.4239C28.8834 11.1679 28.3794 11.0399 27.7794 11.0399C27.2434 11.0399 26.7794 11.1519 26.3874 11.3759C26.0034 11.5919 25.7074 11.9039 25.4994 12.3119C25.2914 12.7199 25.1874 13.2119 25.1874 13.7879C25.1874 14.3639 25.2914 14.8599 25.4994 15.2759C25.7154 15.6839 26.0194 15.9999 26.4114 16.2239C26.8034 16.4479 27.2674 16.5599 27.8034 16.5599C28.3234 16.5599 28.7554 16.4879 29.0994 16.3439C29.4514 16.1919 29.7194 15.9759 29.9034 15.6959C30.0954 15.4079 30.2074 15.0599 30.2394 14.6519L30.8154 14.9999H27.3234V13.5359H32.2074V14.3519C32.2074 15.1439 32.0274 15.8279 31.6674 16.4039C31.3154 16.9799 30.8074 17.4239 30.1434 17.7359C29.4874 18.0479 28.7034 18.2039 27.7914 18.2039Z" fill="white"/>
<path d="M14.9273 18V9.54004H19.2233C19.8793 9.54004 20.4353 9.64404 20.8913 9.85204C21.3473 10.06 21.6953 10.356 21.9353 10.74C22.1753 11.124 22.2953 11.588 22.2953 12.132C22.2953 12.668 22.1753 13.132 21.9353 13.524C21.7033 13.908 21.3553 14.204 20.8913 14.412C20.4353 14.612 19.8793 14.712 19.2233 14.712H16.3673V13.14H19.0673C19.4833 13.14 19.8033 13.056 20.0273 12.888C20.2593 12.72 20.3753 12.464 20.3753 12.12C20.3753 11.776 20.2633 11.524 20.0393 11.364C19.8153 11.196 19.4913 11.112 19.0673 11.112H16.3793L16.8833 10.68V18H14.9273Z" fill="white"/>
<path d="M10.432 18.204C9.39999 18.204 8.60799 17.972 8.05599 17.508C7.51199 17.044 7.23999 16.356 7.23999 15.444V14.904L9.18399 14.508V15.108C9.18399 15.62 9.27999 15.988 9.47199 16.212C9.67199 16.436 9.97599 16.548 10.384 16.548C10.76 16.548 11.044 16.432 11.236 16.2C11.436 15.968 11.536 15.616 11.536 15.144V9.54004H13.492V15.252C13.492 16.212 13.224 16.944 12.688 17.448C12.152 17.952 11.4 18.204 10.432 18.204Z" fill="white"/>
<path d="M40 0V40H0V0H40ZM2 38H38V2H2V38Z" fill="white"/>
<path d="M22.4139 39.4146L20.9997 38.0003L38 21.0001L39.4142 22.4143L22.4139 39.4146Z" fill="white"/>
</svg>
