<svg width="40" height="40" viewBox="0 0 40 40" fill="none" xmlns="http://www.w3.org/2000/svg">
<path d="M25.439 18V9.54004H31.463V11.16H26.519L27.395 10.056V18H25.439ZM26.723 14.46V12.84H30.683V14.46H26.723Z" fill="white"/>
<path d="M16.1226 18V9.54004H19.8066C20.7346 9.54004 21.5306 9.70804 22.1946 10.044C22.8666 10.38 23.3826 10.864 23.7426 11.496C24.1106 12.128 24.2946 12.888 24.2946 13.776C24.2946 14.656 24.1106 15.412 23.7426 16.044C23.3826 16.676 22.8666 17.16 22.1946 17.496C21.5306 17.832 20.7346 18 19.8066 18H16.1226ZM18.0786 17.484L16.9866 16.332H19.6146C20.4706 16.332 21.1146 16.112 21.5466 15.672C21.9786 15.224 22.1946 14.592 22.1946 13.776C22.1946 12.96 21.9786 12.328 21.5466 11.88C21.1146 11.432 20.4706 11.208 19.6146 11.208H16.9866L18.0786 10.056V17.484Z" fill="white"/>
<path d="M7.73199 18V9.54004H12.028C12.684 9.54004 13.24 9.64404 13.696 9.85204C14.152 10.06 14.5 10.356 14.74 10.74C14.98 11.124 15.1 11.588 15.1 12.132C15.1 12.668 14.98 13.132 14.74 13.524C14.508 13.908 14.16 14.204 13.696 14.412C13.24 14.612 12.684 14.712 12.028 14.712H9.17199V13.14H11.872C12.288 13.14 12.608 13.056 12.832 12.888C13.064 12.72 13.18 12.464 13.18 12.12C13.18 11.776 13.068 11.524 12.844 11.364C12.62 11.196 12.296 11.112 11.872 11.112H9.18399L9.68799 10.68V18H7.73199Z" fill="white"/>
<path d="M40 0V40H0V0H40ZM2 38H38V2H2V38Z" fill="white"/>
<path d="M22.4139 39.4146L20.9997 38.0003L38 21.0001L39.4142 22.4143L22.4139 39.4146Z" fill="white"/>
</svg>
