<svg width="40" height="40" viewBox="0 0 40 40" fill="none" xmlns="http://www.w3.org/2000/svg">
<path d="M29.0297 18.2039C28.0857 18.2039 27.2617 18.0199 26.5577 17.6519C25.8537 17.2839 25.3057 16.7679 24.9137 16.1039C24.5297 15.4399 24.3377 14.6679 24.3377 13.7879C24.3377 12.8919 24.5297 12.1119 24.9137 11.4479C25.3057 10.7839 25.8537 10.2679 26.5577 9.8999C27.2617 9.5319 28.0817 9.3479 29.0177 9.3479C29.7537 9.3479 30.4097 9.4479 30.9857 9.6479C31.5617 9.8479 32.0457 10.1439 32.4377 10.5359C32.8297 10.9279 33.1177 11.4039 33.3017 11.9639L31.4297 12.5519C31.2377 12.0559 30.9377 11.6799 30.5297 11.4239C30.1217 11.1679 29.6177 11.0399 29.0177 11.0399C28.4817 11.0399 28.0177 11.1519 27.6257 11.3759C27.2417 11.5919 26.9457 11.9039 26.7377 12.3119C26.5297 12.7199 26.4257 13.2119 26.4257 13.7879C26.4257 14.3639 26.5297 14.8599 26.7377 15.2759C26.9537 15.6839 27.2577 15.9999 27.6497 16.2239C28.0417 16.4479 28.5057 16.5599 29.0417 16.5599C29.5617 16.5599 29.9937 16.4879 30.3377 16.3439C30.6897 16.1919 30.9577 15.9759 31.1417 15.6959C31.3337 15.4079 31.4457 15.0599 31.4777 14.6519L32.0537 14.9999H28.5617V13.5359H33.4457V14.3519C33.4457 15.1439 33.2657 15.8279 32.9057 16.4039C32.5537 16.9799 32.0457 17.4239 31.3817 17.7359C30.7257 18.0479 29.9417 18.2039 29.0297 18.2039Z" fill="white"/>
<path d="M15.1226 18V9.54004H18.3386L21.3146 16.644H21.3266V9.54004H23.1866V18H19.9706L16.9946 10.908V18H15.1226Z" fill="white"/>
<path d="M6.73199 18V9.54004H11.028C11.684 9.54004 12.24 9.64404 12.696 9.85204C13.152 10.06 13.5 10.356 13.74 10.74C13.98 11.124 14.1 11.588 14.1 12.132C14.1 12.668 13.98 13.132 13.74 13.524C13.508 13.908 13.16 14.204 12.696 14.412C12.24 14.612 11.684 14.712 11.028 14.712H8.17199V13.14H10.872C11.288 13.14 11.608 13.056 11.832 12.888C12.064 12.72 12.18 12.464 12.18 12.12C12.18 11.776 12.068 11.524 11.844 11.364C11.62 11.196 11.296 11.112 10.872 11.112H8.18399L8.68799 10.68V18H6.73199Z" fill="white"/>
<path d="M40 0V40H0V0H40ZM2 38H38V2H2V38Z" fill="white"/>
<path d="M22.4139 39.4146L20.9997 38.0003L38 21.0001L39.4142 22.4143L22.4139 39.4146Z" fill="white"/>
</svg>
