<svg width="40" height="40" viewBox="0 0 40 40" fill="none" xmlns="http://www.w3.org/2000/svg">
<path d="M29.612 17.0765V10.4634H32.4918C33.2172 10.4634 33.8394 10.5947 34.3585 10.8574C34.8838 11.12 35.2871 11.4983 35.5685 11.9924C35.8562 12.4864 36 13.0805 36 13.7746C36 14.4625 35.8562 15.0535 35.5685 15.5475C35.2871 16.0416 34.8838 16.4199 34.3585 16.6826C33.8394 16.9452 33.2172 17.0765 32.4918 17.0765H29.612ZM31.141 16.6732L30.2874 15.7727H32.3417C33.0108 15.7727 33.5142 15.6007 33.8519 15.2567C34.1896 14.9065 34.3585 14.4125 34.3585 13.7746C34.3585 13.1368 34.1896 12.6428 33.8519 12.2925C33.5142 11.9423 33.0108 11.7672 32.3417 11.7672H30.2874L31.141 10.8667V16.6732Z" fill="white"/>
<path d="M22.7233 17.0765V10.4634H26.119C26.6318 10.4634 27.0664 10.5415 27.4228 10.6979C27.7793 10.848 28.0513 11.0668 28.2389 11.3545C28.4265 11.6422 28.5203 11.9861 28.5203 12.3864C28.5203 12.7866 28.4265 13.1305 28.2389 13.4182C28.0576 13.6996 27.7887 13.9185 27.4322 14.0748C27.082 14.2249 26.6505 14.2999 26.1377 14.2999H24.9839V13.709H23.6801V13.118H26.0064C26.3316 13.118 26.5786 13.0586 26.7474 12.9398C26.9225 12.821 27.0101 12.6396 27.0101 12.3957C27.0101 12.1456 26.9225 11.9611 26.7474 11.8423C26.5786 11.7172 26.3316 11.6547 26.0064 11.6547H23.8583L24.2523 11.317V17.0765H22.7233ZM27.0289 17.0765L23.802 13.5401H25.5655L28.9143 17.0765H27.0289Z" fill="white"/>
<path d="M18.0338 17.236C17.2709 17.236 16.6048 17.0922 16.0358 16.8045C15.4667 16.5169 15.0227 16.1135 14.7038 15.5945C14.3911 15.0754 14.2347 14.4688 14.2347 13.7747C14.2347 13.0743 14.3911 12.4646 14.7038 11.9455C15.0227 11.4265 15.4667 11.0231 16.0358 10.7355C16.6048 10.4478 17.2709 10.304 18.0338 10.304C18.803 10.304 19.4721 10.4478 20.0412 10.7355C20.6103 11.0231 21.0511 11.4265 21.3638 11.9455C21.6765 12.4646 21.8328 13.0743 21.8328 13.7747C21.8328 14.4688 21.6765 15.0754 21.3638 15.5945C21.0511 16.1135 20.6103 16.5169 20.0412 16.8045C19.4721 17.0922 18.803 17.236 18.0338 17.236ZM18.0338 15.904C18.4715 15.904 18.853 15.8165 19.1782 15.6414C19.5034 15.4663 19.7535 15.2193 19.9286 14.9003C20.11 14.5814 20.2007 14.2062 20.2007 13.7747C20.2007 13.3432 20.11 12.968 19.9286 12.649C19.7535 12.3301 19.5034 12.0831 19.1782 11.908C18.853 11.7266 18.4715 11.636 18.0338 11.636C17.596 11.636 17.2146 11.7266 16.8894 11.908C16.5642 12.0831 16.3109 12.3301 16.1296 12.649C15.9545 12.968 15.8669 13.3432 15.8669 13.7747C15.8669 14.2062 15.9545 14.5814 16.1296 14.9003C16.3109 15.2193 16.5642 15.4663 16.8894 15.6414C17.2146 15.8165 17.596 15.904 18.0338 15.904Z" fill="white"/>
<path d="M5.21562 17.0765L3.73352 10.4634H5.32818L6.40692 16.0259L7.59823 10.4634H9.92456L11.1159 16.0353L12.204 10.4634H13.7893L12.3072 17.0765H9.92456L8.77078 11.4671H8.7614L7.58885 17.0765H5.21562Z" fill="white"/>
<path d="M40 0V40H0V0H40ZM2 38H38V2H2V38Z" fill="white"/>
<path d="M22.4139 39.4146L20.9997 38.0003L38 21.0001L39.4142 22.4143L22.4139 39.4146Z" fill="white"/>
</svg>
