<svg width="22" height="22" viewBox="0 0 22 22" fill="none" xmlns="http://www.w3.org/2000/svg">
<path d="M10.9998 1.37109C5.68422 1.37109 1.375 5.69623 1.375 11.0315C1.375 15.5618 4.48266 19.3633 8.67484 20.4074V13.9837H6.6902V11.0315H8.67484V9.75937C8.67484 6.47138 10.1574 4.94736 13.3737 4.94736C13.9835 4.94736 15.0357 5.06753 15.4661 5.18732V7.86324C15.239 7.83928 14.8443 7.8273 14.3542 7.8273C12.7762 7.8273 12.1663 8.4274 12.1663 9.98736V11.0315H15.3102L14.77 13.9837H12.1663V20.6211C16.9322 20.0434 20.625 15.9706 20.625 11.0315C20.6246 5.69623 16.3154 1.37109 10.9998 1.37109Z" fill="white"/>
</svg>
