<svg width="22" height="22" viewBox="0 0 22 22" fill="none" xmlns="http://www.w3.org/2000/svg">
<path d="M10.9988 3.10249C13.572 3.10249 13.8767 3.11377 14.8887 3.15889C15.8292 3.20026 16.337 3.3582 16.6756 3.48982C17.1233 3.6628 17.4468 3.87339 17.7816 4.20807C18.1202 4.54652 18.3271 4.86616 18.5002 5.31366C18.6318 5.65211 18.7898 6.16353 18.8312 7.0999C18.8764 8.11523 18.8877 8.41983 18.8877 10.9883C18.8877 13.5604 18.8764 13.865 18.8312 14.8766C18.7898 15.8167 18.6318 16.3244 18.5002 16.6629C18.3271 17.1104 18.1165 17.4338 17.7816 17.7684C17.4431 18.1069 17.1233 18.3137 16.6756 18.4867C16.337 18.6183 15.8254 18.7763 14.8887 18.8176C13.873 18.8627 13.5682 18.874 10.9988 18.874C8.42562 18.874 8.1209 18.8627 7.10893 18.8176C6.16844 18.7763 5.66057 18.6183 5.32199 18.4867C4.87432 18.3137 4.55079 18.1031 4.21598 17.7684C3.8774 17.43 3.67049 17.1104 3.49744 16.6629C3.36577 16.3244 3.20777 15.813 3.16639 14.8766C3.12124 13.8613 3.10996 13.5567 3.10996 10.9883C3.10996 8.41607 3.12124 8.11147 3.16639 7.0999C3.20777 6.15977 3.36577 5.65211 3.49744 5.31366C3.67049 4.86616 3.88116 4.54276 4.21598 4.20807C4.55455 3.86963 4.87432 3.6628 5.32199 3.48982C5.66057 3.3582 6.1722 3.20026 7.10893 3.15889C8.1209 3.11377 8.42562 3.10249 10.9988 3.10249ZM10.9988 1.3689C8.38424 1.3689 8.05695 1.38018 7.02993 1.4253C6.00667 1.47043 5.30318 1.63589 4.69375 1.8728C4.05797 2.121 3.52001 2.44816 2.98581 2.98591C2.44785 3.5199 2.12056 4.05765 1.87227 4.68942C1.63526 5.30238 1.46974 6.00183 1.42459 7.02469C1.37945 8.05507 1.36816 8.38223 1.36816 10.9958C1.36816 13.6093 1.37945 13.9365 1.42459 14.9631C1.46974 15.986 1.63526 16.6892 1.87227 17.2984C2.12056 17.9339 2.44785 18.4717 2.98581 19.0056C3.52001 19.5396 4.05797 19.8706 4.68998 20.115C5.30318 20.3519 6.00291 20.5174 7.02617 20.5625C8.05318 20.6076 8.38048 20.6189 10.995 20.6189C13.6096 20.6189 13.9369 20.6076 14.9639 20.5625C15.9872 20.5174 16.6907 20.3519 17.3001 20.115C17.9321 19.8706 18.4701 19.5396 19.0043 19.0056C19.5385 18.4717 19.8695 17.9339 20.1141 17.3021C20.3511 16.6892 20.5166 15.9897 20.5617 14.9669C20.6069 13.9402 20.6182 13.6131 20.6182 10.9995C20.6182 8.38599 20.6069 8.05883 20.5617 7.03221C20.5166 6.00935 20.3511 5.30614 20.1141 4.69694C19.8771 4.05765 19.5498 3.5199 19.0118 2.98591C18.4776 2.45192 17.9396 2.121 17.3076 1.87656C16.6944 1.63965 15.9947 1.47419 14.9714 1.42906C13.9407 1.38018 13.6134 1.3689 10.9988 1.3689Z" fill="white"/>
<path d="M10.9932 6.1814C8.33623 6.1814 6.18066 8.33696 6.18066 10.9939C6.18066 13.6508 8.33623 15.8064 10.9932 15.8064C13.6501 15.8064 15.8057 13.6508 15.8057 10.9939C15.8057 8.33696 13.6501 6.1814 10.9932 6.1814ZM10.9932 14.1156C9.26945 14.1156 7.87144 12.7176 7.87144 10.9939C7.87144 9.27018 9.26945 7.87218 10.9932 7.87218C12.7169 7.87218 14.1149 9.27018 14.1149 10.9939C14.1149 12.7176 12.7169 14.1156 10.9932 14.1156Z" fill="white"/>
<path d="M17.1807 5.83765C17.1807 6.4087 16.7171 6.8689 16.1494 6.8689C15.5784 6.8689 15.1182 6.40534 15.1182 5.83765C15.1182 5.2666 15.5817 4.8064 16.1494 4.8064C16.7171 4.8064 17.1807 5.26996 17.1807 5.83765Z" fill="white"/>
</svg>
