<svg width="28" height="28" viewBox="0 0 28 28" fill="none" xmlns="http://www.w3.org/2000/svg">
<path d="M27.1171 3.1922C27.1171 3.1922 27.1171 3.20392 27.1171 3.20978L20.2968 25.7027C20.1935 26.0681 19.981 26.3931 19.6878 26.6342C19.3945 26.8753 19.0346 27.0209 18.6562 27.0516C18.6022 27.0563 18.5483 27.0586 18.4944 27.0586C18.1398 27.0597 17.7923 26.9593 17.4929 26.7693C17.1934 26.5794 16.9546 26.3077 16.8046 25.9863L12.539 17.2324C12.4963 17.1447 12.482 17.0458 12.4982 16.9496C12.5144 16.8534 12.5602 16.7647 12.6292 16.6957L19.4167 9.90822C19.5851 9.73097 19.6776 9.49496 19.6745 9.25049C19.6713 9.00603 19.5728 8.77246 19.3999 8.59958C19.2271 8.42671 18.9935 8.3282 18.749 8.32507C18.5046 8.32194 18.2686 8.41443 18.0913 8.58283L11.3003 15.3703C11.2313 15.4394 11.1426 15.4851 11.0464 15.5013C10.9502 15.5175 10.8513 15.5032 10.7636 15.4606L2.00147 11.1961C1.65883 11.0317 1.37424 10.7671 1.18539 10.4373C0.996547 10.1076 0.912369 9.72817 0.944013 9.34947C0.975656 8.97076 1.12163 8.61061 1.36258 8.31674C1.60354 8.02287 1.9281 7.80916 2.29326 7.70392L24.7862 0.883609H24.8038C25.1241 0.793634 25.4625 0.790479 25.7844 0.874469C26.1062 0.958459 26.4 1.12657 26.6354 1.36155C26.8709 1.59653 27.0396 1.88993 27.1242 2.21163C27.2089 2.53334 27.2064 2.87177 27.1171 3.1922Z" fill="#262626"/>
</svg>
