<svg width="22" height="22" viewBox="0 0 22 22" fill="none" xmlns="http://www.w3.org/2000/svg">
<path d="M21.1071 6.69717C21.1071 6.69717 20.9056 5.21449 20.2853 4.56345C19.4998 3.70661 18.6216 3.70241 18.2188 3.65201C15.3345 3.43359 11.004 3.43359 11.004 3.43359H10.996C10.996 3.43359 6.66553 3.43359 3.78125 3.65201C3.37842 3.70241 2.50024 3.70661 1.71472 4.56345C1.09436 5.21449 0.896973 6.69717 0.896973 6.69717C0.896973 6.69717 0.6875 8.44026 0.6875 10.1792V11.8088C0.6875 13.5477 0.892944 15.2908 0.892944 15.2908C0.892944 15.2908 1.09436 16.7735 1.71069 17.4245C2.49622 18.2814 3.52747 18.252 3.98669 18.3444C5.63831 18.5082 11 18.5586 11 18.5586C11 18.5586 15.3345 18.5502 18.2188 18.336C18.6216 18.2856 19.4998 18.2814 20.2853 17.4245C20.9056 16.7735 21.1071 15.2908 21.1071 15.2908C21.1071 15.2908 21.3125 13.5519 21.3125 11.8088V10.1792C21.3125 8.44026 21.1071 6.69717 21.1071 6.69717ZM8.86902 13.7871V7.74302L14.4402 10.7756L8.86902 13.7871Z" fill="white"/>
</svg>
